<svg width="48" height="48" viewBox="0 0 48 48" fill="none" xmlns="http://www.w3.org/2000/svg">
  <circle cx="24" cy="24" r="24" fill="#E5E7EB"/>
  <path d="M24 12C17.3726 12 12 17.3726 12 24C12 30.6274 17.3726 36 24 36C30.6274 36 36 30.6274 36 24C36 17.3726 30.6274 12 24 12ZM24 16C26.2091 16 28 17.7909 28 20C28 22.2091 26.2091 24 24 24C21.7909 24 20 22.2091 20 20C20 17.7909 21.7909 16 24 16ZM24 33.2C21.3 33.2 18.8 32.1 17 30.4C17.1 27.2 20.4 25.6 24 25.6C27.6 25.6 30.9 27.2 31 30.4C29.2 32.1 26.7 33.2 24 33.2Z" fill="#9CA3AF"/>
</svg>